<svg width="26" height="26" viewBox="0 0 26 26" fill="none" xmlns="http://www.w3.org/2000/svg">
<path d="M14.6547 20.7947C14.8434 20.9767 15.096 21.0774 15.3582 21.075C15.6204 21.0726 15.8712 20.9673 16.0565 20.7818C16.2418 20.5963 16.3469 20.3455 16.349 20.0833C16.3512 19.8211 16.2502 19.5685 16.068 19.38L14.6547 20.7947ZM6.62133 9.93066C6.52904 9.8352 6.41866 9.75907 6.29663 9.70672C6.1746 9.65437 6.04337 9.62684 5.91059 9.62575C5.77781 9.62466 5.64615 9.65003 5.52327 9.70037C5.4004 9.7507 5.28879 9.82501 5.19494 9.91895C5.10109 10.0129 5.02689 10.1246 4.97667 10.2475C4.92644 10.3704 4.9012 10.5021 4.90242 10.6349C4.90364 10.7677 4.93128 10.8989 4.98375 11.0208C5.03621 11.1428 5.11245 11.2531 5.208 11.3453L6.62133 9.93066ZM20.9533 13.08L13.08 20.9533L14.4933 22.3667L22.3667 14.4947L20.9533 13.08ZM5.04667 12.9213L12.92 5.04667L11.5067 3.63467L3.63333 11.5053L5.04667 12.9213ZM5.04667 20.9533C3.91333 19.82 3.136 19.0387 2.63067 18.376C2.14133 17.7347 2 17.3227 2 16.936L0 16.9373C0 17.936 0.416 18.7693 1.04 19.5893C1.64667 20.384 2.54 21.2733 3.63333 22.3667L5.04667 20.9533ZM3.63333 11.5053C2.54 12.5987 1.64667 13.4893 1.04 14.284C0.416 15.1027 0 15.9373 0 16.9373L2 16.936C2 16.5493 2.14133 16.1373 2.63067 15.4973C3.13733 14.8333 3.91333 14.0547 5.04667 12.9213L3.63333 11.5053ZM13.08 20.9533C11.9467 22.0867 11.1667 22.864 10.5027 23.3707C9.86267 23.8587 9.44933 24 9.06267 24V26C10.0627 26 10.8973 25.584 11.716 24.96C12.5107 24.3533 13.4013 23.46 14.4947 22.3667L13.08 20.9533ZM3.63333 22.3667C4.72667 23.46 5.616 24.3533 6.412 24.96C7.23067 25.584 8.06533 26.0013 9.064 26.0013V24C8.67733 24 8.26533 23.8587 7.624 23.3693C6.96133 22.8627 6.18 22.0867 5.04667 20.9533L3.63333 22.3667ZM20.9533 5.04667C22.0867 6.18 22.864 6.96133 23.3707 7.624C23.8587 8.26533 24 8.67733 24 9.064H26C26 8.06533 25.584 7.23067 24.96 6.41067C24.3533 5.616 23.46 4.72667 22.3667 3.63333L20.9533 5.04667ZM22.3667 14.4947C23.46 13.4013 24.3533 12.5107 24.96 11.716C25.584 10.8973 26 10.0627 26 9.06266H24C24 9.44933 23.8587 9.86267 23.3693 10.5027C22.8627 11.1667 22.0867 11.9467 20.9533 13.08L22.3667 14.4947ZM22.3667 3.63333C21.2733 2.54 20.384 1.64667 19.588 1.04C18.7693 0.416 17.9347 0 16.936 0V2C17.3227 2 17.7347 2.14133 18.376 2.63067C19.0387 3.13733 19.82 3.91333 20.9533 5.04667L22.3667 3.63333ZM12.92 5.04667C14.0533 3.91333 14.8333 3.136 15.4973 2.63067C16.1373 2.14133 16.5507 2 16.9373 2V0C15.9373 0 15.1027 0.416 14.284 1.04C13.4893 1.64667 12.5987 2.54 11.5053 3.63333L12.92 5.04667ZM16.0693 19.3787L6.62133 9.932L5.208 11.3453L14.6547 20.7947L16.0693 19.3787Z" fill="#2D2D2D"/>
<path d="M9 25.0012H25" stroke="#2D2D2D" stroke-width="1.5" stroke-linecap="round"/>
</svg>
