<svg width="29" height="29" viewBox="0 0 29 29" fill="none" xmlns="http://www.w3.org/2000/svg">
<path d="M3.682 26.9856L8.05666 25.527C9.09 25.183 9.606 25.011 10.0913 24.7803C10.664 24.5066 11.2054 24.1718 11.706 23.7816C12.13 23.451 12.5153 23.0656 13.2847 22.2963L24.646 10.9363L25.882 9.70029C26.8653 8.71705 27.4176 7.38348 27.4176 5.99296C27.4176 4.60244 26.8653 3.26887 25.882 2.28563C24.8988 1.30238 23.5652 0.75 22.1747 0.75C20.7841 0.75 19.4506 1.30238 18.4673 2.28563L17.2313 3.52163L5.86866 14.8816C5.09933 15.6523 4.714 16.0376 4.38333 16.4616C3.99319 16.9623 3.65835 17.5036 3.38466 18.0763C3.154 18.5616 2.982 19.079 2.638 20.111L1.17933 24.4856M24.646 10.9363C24.646 10.9363 22.0207 10.7816 19.7033 8.46429C17.386 6.14829 17.2327 3.52163 17.2327 3.52163M3.682 26.9856L2.61266 27.343C2.3634 27.4265 2.09577 27.4389 1.83984 27.3788C1.58392 27.3186 1.34986 27.1882 1.16396 27.0023C0.978057 26.8164 0.847693 26.5824 0.787519 26.3264C0.727345 26.0705 0.739746 25.8029 0.823327 25.5536L1.18066 24.4843L3.682 26.9856Z" stroke="#2D2D2D" stroke-width="1.5"/>
</svg>
