<svg width="20" height="24" viewBox="0 0 20 24" fill="none" xmlns="http://www.w3.org/2000/svg">
<path d="M6.7447 2.05592C8.23062 1.38504 9.8237 1.04935 11.4173 1.04935C12.7325 1.04935 14.0443 1.28977 15.3 1.74716L16.5984 0.292174C17.0161 -0.175697 17.5118 -0.0704507 17.7053 0.527606L19.9453 7.42196C20.1393 8.01852 19.8009 8.39711 19.1897 8.26842L12.1307 6.77203C11.5195 6.64184 11.3617 6.15751 11.7795 5.69114L12.7633 4.5878C11.2104 4.32244 9.59846 4.508 8.13437 5.1689C6.1806 6.05127 4.68575 7.64393 3.92469 9.65707C3.16312 11.6687 3.22762 13.8584 4.10429 15.8222C4.98095 17.7864 6.5661 19.2893 8.56799 20.0545C10.5689 20.8186 12.7474 20.7553 14.7007 19.8749C14.7007 19.8749 15.0118 20.5712 15.3958 21.4316C15.7798 22.2901 15.1675 23.4298 13.95 23.7116C11.772 24.2144 9.49576 24.0603 7.3609 23.2448C4.51161 22.1534 2.2552 20.0136 1.00693 17.2193C-0.241338 14.4241 -0.332131 11.3066 0.751919 8.4425C1.83547 5.57891 3.96388 3.31039 6.7447 2.05592Z" fill="#2D2D2D"/>
</svg>
