<svg width="48" height="48" viewBox="0 0 48 48" fill="none" xmlns="http://www.w3.org/2000/svg">
<rect y="48" width="48" height="48" rx="24" transform="rotate(-90 0 48)" fill="url(#paint0_linear_2864_4321)"/>
<path d="M25.4825 18.365L30.3297 24.6575C30.5275 24.9144 30.7583 25.0377 31.0221 25.0274C31.2859 25.0171 31.5167 24.8831 31.7146 24.6254C31.8959 24.3686 31.9909 24.069 31.9995 23.7265C32.008 23.3841 31.9131 23.0844 31.7146 22.8276L25.1858 14.3519C25.0868 14.2235 24.9797 14.1324 24.8643 14.0784C24.7489 14.0245 24.6252 13.9984 24.4933 14.0001C24.3614 14.0018 24.2378 14.0288 24.1223 14.081C24.0069 14.1332 23.8998 14.224 23.8009 14.3532L17.272 22.8289C17.0907 23.0643 17 23.3588 17 23.7124C17 24.066 17.0907 24.3707 17.272 24.6267C17.4699 24.8836 17.705 25.012 17.9773 25.012C18.2497 25.012 18.4845 24.8836 18.6817 24.6267L23.5041 18.365V32.7158C23.5041 33.0797 23.5991 33.3849 23.789 33.6314C23.9789 33.878 24.2137 34.0009 24.4933 34C24.7729 33.9991 25.008 33.8759 25.1986 33.6301C25.3892 33.3844 25.4838 33.0797 25.4825 32.7158V18.365Z" fill="white"/>
<defs>
<linearGradient id="paint0_linear_2864_4321" x1="48" y1="48" x2="0" y2="96" gradientUnits="userSpaceOnUse">
<stop offset="0.227537" stop-color="#5CB7F7"/>
<stop offset="1" stop-color="#1C64F1"/>
</linearGradient>
</defs>
</svg>
