<svg width="48" height="48" viewBox="0 0 48 48" fill="none" xmlns="http://www.w3.org/2000/svg">
<rect width="48" height="48" rx="24" fill="url(#paint0_linear_2437_1462)"/>
<path d="M29.635 25.4825L23.3425 30.3297C23.0856 30.5275 22.9623 30.7583 22.9726 31.0221C22.9829 31.2859 23.1169 31.5167 23.3746 31.7146C23.6314 31.8959 23.931 31.9909 24.2735 31.9995C24.6159 32.008 24.9156 31.9131 25.1724 31.7146L33.6481 25.1858C33.7765 25.0868 33.8676 24.9797 33.9216 24.8643C33.9755 24.7489 34.0016 24.6252 33.9999 24.4933C33.9982 24.3614 33.9712 24.2378 33.919 24.1223C33.8668 24.0069 33.776 23.8998 33.6468 23.8009L25.1711 17.272C24.9357 17.0907 24.6412 17 24.2876 17C23.934 17 23.6293 17.0907 23.3733 17.272C23.1164 17.4699 22.988 17.705 22.988 17.9773C22.988 18.2497 23.1164 18.4845 23.3733 18.6817L29.635 23.5041H15.2842C14.9203 23.5041 14.6151 23.5991 14.3686 23.789C14.122 23.9789 13.9991 24.2137 14 24.4933C14.0009 24.7729 14.1241 25.008 14.3699 25.1986C14.6156 25.3892 14.9203 25.4838 15.2842 25.4825H29.635Z" fill="white"/>
<defs>
<linearGradient id="paint0_linear_2437_1462" x1="48" y1="0" x2="0" y2="48" gradientUnits="userSpaceOnUse">
<stop offset="0.227537" stop-color="#5CB7F7"/>
<stop offset="1" stop-color="#1C64F1"/>
</linearGradient>
</defs>
</svg>
