<svg width="20" height="24" viewBox="0 0 20 24" fill="none" xmlns="http://www.w3.org/2000/svg">
<path d="M13.2553 2.05592C11.7694 1.38504 10.1763 1.04935 8.58272 1.04935C7.26747 1.04935 5.9557 1.28977 4.69999 1.74716L3.40161 0.292174C2.98387 -0.175697 2.48823 -0.0704507 2.29474 0.527606L0.054701 7.42196C-0.139287 8.01852 0.199076 8.39711 0.810311 8.26842L7.86928 6.77203C8.48052 6.64184 8.63829 6.15751 8.22054 5.69114L7.23671 4.5878C8.78961 4.32244 10.4015 4.508 11.8656 5.1689C13.8194 6.05127 15.3142 7.64393 16.0753 9.65707C16.8369 11.6687 16.7724 13.8584 15.8957 15.8222C15.019 17.7864 13.4339 19.2893 11.432 20.0545C9.43111 20.8186 7.25259 20.7553 5.29932 19.8749C5.29932 19.8749 4.98824 20.5712 4.60424 21.4316C4.22023 22.2901 4.83246 23.4298 6.04997 23.7116C8.22799 24.2144 10.5042 24.0603 12.6391 23.2448C15.4884 22.1534 17.7448 20.0136 18.9931 17.2193C20.2413 14.4241 20.3321 11.3066 19.2481 8.4425C18.1645 5.57891 16.0361 3.31039 13.2553 2.05592Z" fill="#2D2D2D"/>
</svg>
